{"title":"Cloudy With A Chance Of Meatballs 2 CAM XViD-ThumperDC","uid":8984138,"size":1499379914,"categoryP":"video","categoryS":"movies","magnet":"?xt=urn:btih:ded8b0db27e5abc7ff4c83598437047c57e65432&amp;dn=Cloudy+With+A+Chance+Of+Meatballs+2+CAM+XViD-ThumperDC&amp;tr=udp%3A%2F%2Ftracker.openbittorrent.com%3A80&amp;tr=udp%3A%2F%2Fopen.demonii.com%3A1337&amp;tr=udp%3A%2F%2Ftracker.coppersurfer.tk%3A6969&amp;tr=udp%3A%2F%2Fexodus.desync.com%3A6969","seeders":2,"leechers":0,"uploader":"ThumperTM","files":-1,"time":1380586918,"description":"===================================================================\nCome have a beer with us :D : &lt;a href=&quot; http://thumperdc.com/&quot; rel=&quot;nofollow&quot; target=&quot;_NEW&quot;&gt; http://thumperdc.com/&lt;/a&gt;\n===================================================================\n                                                         &lt;a href=&quot;\nhttp://virtualupload.net/viewer.php?file=37468349248820617514.jpg&quot; rel=&quot;nofollow&quot; target=&quot;_NEW&quot;&gt;\nhttp://virtualupload.net/viewer.php?file=37468349248820617514.jpg&lt;/a&gt;\n\n\nRELEASE NAME........: Cloudy With A Chance Of Meatballs 2 CAM XViD FiNGERBLaST\n\nIMDB: http://www.imdb.com/title/tt1985966/\n\nRELEASE DATE........: 1st October 2013\n\nDVD DATE............:N/A\n\nTHEATRE DATE........: 25Th October 2013 (UK\n\nFOLDER SIZE...........: 1.38 GB\n\nSOURCE..............: No GRP Many Thanks\n\nAUDIO...............: No GRP Many Thanks\n\n\nCloudy With A Chance Of Meatballs 2 CAM XViD FiNGERBLaST.avi\nFormat : AVI\nFormat/Info : Audio Video Interleave\nFile size : 1.38 GiB\nDuration : 1h 27mn\nOverall bit rate : 2 248 Kbps\nWriting library : VirtualDub build 30091/release\n\nVideo\nID : 0\nFormat : MPEG-4 Visual\nFormat profile : Advanced Simple@L5\nFormat settings, BVOP : 2\nFormat settings, QPel : No\nFormat settings, GMC : No warppoints\nFormat settings, Matrix : Default (H.263)\nMuxing mode : Packed bitstream\nCodec ID : XVID\nCodec ID/Hint : XviD\nDuration : 1h 27mn\nBit rate : 2 108 Kbps\nWidth : 608 pixels\nHeight : 288 pixels\nDisplay aspect ratio : 2.111\nFrame rate : 29.970 fps\nColor space : YUV\nChroma subsampling : 4:2:0\nBit depth : 8 bits\nScan type : Progressive\nCompression mode : Lossy\nBits/(Pixel*Frame) : 0.402\nStream size : 1.29 GiB (94%)\nWriting library : XviD 64\n\nAudio\nID : 1\nFormat : MPEG Audio\nFormat version : Version 1\nFormat profile : Layer 3\nMode : Joint stereo\nMode extension : MS Stereo\nCodec ID : 55\nCodec ID/Hint : MP3\nDuration : 1h 27mn\nBit rate mode : Constant\nBit rate : 128 Kbps\nChannel(s) : 2 channels\nSampling rate : 44.1 KHz\nCompression mode : Lossy\nStream size : 80.2 MiB (6%)\nAlignment : Split accross interleaves\nInterleave, duration : 33 ms (1.00 video frame)\nInterleave, preload duration : 500 ms\nWriting library : LAME3.99r\nEncoding settings : -m j -V 4 -q 2 -lowpass 17 -b 128\n\nScreens:                                                         &lt;a href=&quot;\nhttp://virtualupload.net/viewer.php?file=75093572869684326021.jpg&quot; rel=&quot;nofollow&quot; target=&quot;_NEW&quot;&gt;\nhttp://virtualupload.net/viewer.php?file=75093572869684326021.jpg&lt;/a&gt;\n &lt;a href=&quot;\nhttp://virtualupload.net/viewer.php?file=95820732939147876541.jpg&quot; rel=&quot;nofollow&quot; target=&quot;_NEW&quot;&gt;\nhttp://virtualupload.net/viewer.php?file=95820732939147876541.jpg&lt;/a&gt;\n &lt;a href=&quot;\nhttp://virtualupload.net/viewer.php?file=76577788561023254564.jpg&quot; rel=&quot;nofollow&quot; target=&quot;_NEW&quot;&gt;\nhttp://virtualupload.net/viewer.php?file=76577788561023254564.jpg&lt;/a&gt;\n\n\nAny comments on quality appreciated.\n\nThumpeRDC\n\n\n====================================================================================\nIf you need help please post in my forum, Thanks &lt;a href=&quot; http://thumperdc.com/&quot; rel=&quot;nofollow&quot; target=&quot;_NEW&quot;&gt; http://thumperdc.com/&lt;/a&gt;\t\n====================================================================================\t\t","torrent":{"xt":"urn:btih:ded8b0db27e5abc7ff4c83598437047c57e65432","amp;dn":"Cloudy+With+A+Chance+Of+Meatballs+2+CAM+XViD-ThumperDC","amp;tr":["udp%3A%2F%2Ftracker.openbittorrent.com%3A80","udp%3A%2F%2Fopen.demonii.com%3A1337","udp%3A%2F%2Ftracker.coppersurfer.tk%3A6969","udp%3A%2F%2Fexodus.desync.com%3A6969"],"infoHash":"ded8b0db27e5abc7ff4c83598437047c57e65432","infoHashBuffer":{"type":"Buffer","data":[222,216,176,219,39,229,171,199,255,76,131,89,132,55,4,124,87,230,84,50]},"announce":[],"urlList":[]}}